<svg xmlns="http://www.w3.org/2000/svg" viewBox="0 0 150 150">
<!-- SVG created with Arrow, by QuiverAI (https://quiver.ai) -->
  <style type="text/css">.cls-0 {fill:#080808;}</style>
  <path class="cls-0" d="m139.5 58.5c0-0.1-0.2-0.1-0.2 0.1 0 1.4-0.3 2.7-0.8 4.1-3.1-2.1-5.7-4.8-7.4-7.7l-0.1-0.4c0.3-1.2 0.4-2.4 0.6-4.4-3.5-1.9-5.4-4.4-7.4-7.5-3.8-5.9-8.1-11.4-14.9-17l-0.1 0.1c2 3.9 4.6 9.2 6.1 12.8h-0.1c-11.1-7.7-26.6-13.7-35.1-25.6-0.1-0.1-0.3-0.1-0.2 0.1 1.5 8.4 8.4 15.8 13.2 20.6l4 4.3c-6.7-3.4-13.4-6.3-23.1-6.2l-2.5 0.1v0.1c4.4 1.3 10.3 3.8 14.5 7.9-5.9 0.5-15.6 3.1-21.7 9.4l0.1 0.2c3.2-0.8 6.2-1.8 9.9 0-3.2 2.2-7.4 5.9-10.8 11.5-5.5-4-8.5-11.1-8.5-20.1 0-10.6 6.9-23.9 15-30.8 4.4-3.8 9.8-6.6 15.4-8.2v-0.1c-1.8-0.1-13.2-0.7-26.3 4.2-16.2 5.9-38.1 19.4-51.1 51.6l0.2 0.1c3.3-4.6 10.1-12.1 12.7-14.3 7.3-10.2 21.1-20.4 36.9-29l0.1 0.1c-10.4 10.7-26.7 34.6-26.7 66.6 0 11 2.2 24.2 6.4 35.2-5.7-9.2-9.8-21.5-9.8-37.3 0-20.7 7.9-38 18.9-55.5h-0.1c-10.5 6.7-36.5 29.4-36.5 62.9 0 4.1 0.4 8.1 1.3 13l0.3 0.1c0.8-5.4 3.7-11.4 6.4-11.3 6.3 0.2 11.7 25.8 20.5 35.8 6 7.6 14.4 14.5 26.4 18.3l0.1-0.1c-13.6-7.2-24.7-22.1-26.2-38.8-0.4-4.5 0-10.8 1.6-15.5 3.5-11 12.8-18.3 19.4-14.8l0.7 0.5c-6.2 5-13.7 14.1-13.6 28.5 0.1 7.9 2.3 16.2 7.2 23.9h0.2c-2.3-20.5 10-32.7 20.7-37.8 2.8-1.3 5.2-2 7.9-0.8v-0.1c-1.9-2.6-3.4-6.2-3.4-10.4 0-12 10.8-20.5 17.3-21.1 3-0.3 5.9 1.1 7.7 5.2l-1.6 0.1-4.4-0.7v0.1c2.4 4.2 7.8 5.4 10.8 6.8 3.5 2 6.6 4.7 8.8 9.3-1.3 0.8-2.7 0.5-4.4 0.2v0.1c1.4 1.7 3.6 3.5 5.6 3.8 0.5 1.4 0.2 2.9-0.1 3.9 3.9-0.6 10.1-3.5 11.1-8.7h-0.1c-0.9 0.5-3.5 1.7-4.4 0.6 1-1.5 1-3.1 0.9-4.4h-0.1c-0.6 0.8-1.7 1.5-3.2 1.9l-9.4-16.1c3.3 0.6 7.3 2.7 10.4 5 0.8 1.5 1.9 3.2 1.7 5.2h0.2c0.8-0.7 1.5-1.6 2-2.6 1.2 1.1 1.4 3 1.1 4.5 0.9-0.4 1.7-1.1 2.4-2.3 0.7 1.2 1 2.9 0.7 4.7l0.2 0.1c0.8-0.5 1.8-1.4 2.4-2.5 1.7 1.4 0.9 5.1 0.4 6.9 4-1.3 6.2-6.3 6.2-10.8-0.1-2.5-0.8-5.6-2.3-7.6zm-20-5.5c-1.9-0.6-2-3.5-5.3-8 3.7 1.6 7.7 4.7 10.3 9.4l-5-1.4zm19.8 35.9c-0.9 10.6-7.2 25.5-20.5 32.8 6.2-12.7 3.6-23.7-5.8-32.1l-0.1 0.1c1.5 4.2 3 9.8-0.3 14.8-3.2 4-9.5 3-8.6-4 0.9-4.4 5.9-15.4-3-24.8l-3.1-3.5-0.1 0.1c2.6 13.2-6.7 17.8-12.7 24.8-5.2 6.3-8.2 11.6-8.2 21.4-4.1-4-5.5-10.8 0.9-18.5l-0.1-0.5c-7.3 3.6-13.2 11.1-13.2 21.6 0.1 10 7.9 21.5 20.4 21.8 1.7 0 3.5-0.3 5-1.2-2.8-2.2-5.4-6.2-5.5-12 0-5.2 3.1-14.1 11.2-20-2.2 5.8-2.1 12.9 4 19.8 3-4.1 7-6.8 11.5-7.5v0.1c-4.7 5.5-4.1 13.4-13.5 20.5-3.2 2.4-7.9 4.9-13.1 5.9v0.1c23.9 0.8 55.6-16 55.6-51.7l-0.5-8h-0.3z"/>
</svg>