<svg xmlns="http://www.w3.org/2000/svg" viewBox="0 0 150 150">
<!-- SVG created with Arrow, by QuiverAI (https://quiver.ai) -->
  <style type="text/css">.cls-0 {fill:#151515;}</style>
  <path class="cls-0" d="m63.7 35.4c0-1.4 0.8-4.3 2.5-4.9-0.5-1.7-4-6.9-4-6.9l7.1-22.3h0.2l7.1 22.3c0 0.6-3.6 4.7-3.8 6.8 1.4 0.4 2.2 2.3 2.2 3.8h-11.2v1.2h11.2c0 1.5-0.6 2.7-2 3.4-0.6 0.2-5 0.2-7 0-1.5-0.6-2.2-1.9-2.3-3.4zm1.5-12.1c1.5 1.3 3.2 3.5 3.9 5.2v-19h-0.1c-0.8 4.5-2.3 9.5-3.8 13.8z"/>
  <path class="cls-0" d="m60.7 35.9c-0.8-3 0.9-5.4 0.9-5.4-19.4 2.7-48.3 20.4-48.3 57.1 0 8.8 2.3 17.7 6.1 26.6 1.2-1.4 2.7-2.2 4.3-3-3.2-6.6-5.4-14.6-5.4-23.5 0-23.5 18-45.9 42.4-51.7v-0.1z"/>
  <path class="cls-0" d="m81.3 35.7c2.7-1 7.7-1.7 12.4-1.5v-0.2c-4.6-1.9-10.2-3.5-16.9-4.2 1 1.3 1.6 3.3 1.2 5.4l3.3 0.5z"/>
  <path class="cls-0" d="m121.1 72.5c1.4 4.3 2.4 9.6 2.4 14.9 0 7.5-1.9 15.6-5.6 23.8 1.5 0.7 3 1.8 4.2 3.1 3.8-7.2 6.8-16.5 6.8-26.9 0-5.3-0.9-10.8-2.7-16.8-1.3 0.7-2.7 1.3-5.1 1.9z"/>
  <path class="cls-0" d="m78.9 125.9c-2.2-1.9-4.8-3.1-8.4-3.1-6.7 0-12.5 5.6-12.5 13.1 0 6 4.6 12.9 12.5 12.9s12.3-5.9 12.3-12.4c0-4-1.5-7.8-3.9-10.5zm-8.4 18.4-7.6-8.2 7.6-9 7.5 9-7.5 8.2z"/>
  <path class="cls-0" d="m94.2 126.6c-5-2.2-11.8-7.2-12.7-17.7s-3.4-20.9-15-26.4l0.4-2.4c11.5-1.5 16.7 6 23.8 10.5 0.4 0.8-4.2 0.5-7.1-0.7 2.3 2.6 6 7 11.5 8.2 0.6 0.3-2.7 2.9-6.9 1.9 2.8 5.1 5.8 8.1 9.5 9.1-0.1 1.3-4.1 3.7-7.3 2.1 1.2 2.9 1.6 6.8 5.7 10.3l0.1-0.1-1.7-3.2c2.9-0.4 6.6-0.8 11.1-0.8 6 0 10.9 0.2 14.9 1.6v5.8h-12.3l-1.6-6.4h-1.4l-1.7 6.4h-8.4c-1.1-0.4-2.1-1-2.7-1.8l0.2-1.2c-5.9-2.2-8.2-6.4-8.8-13.7-1.2-16.1-7.9-23.5-16.1-26.5l-0.8-2.2c10.7-0.9 15.2 4.7 20.7 8.7-7.7 2.4-3.2-2.2-3.2-2.2-1 2 6.2 4.5 6.2 4.5-3-1.5-10.9-9.3-17-10.5l-1.6 0.7-5.1 0.5c-0.5-4.1-4.4-5.6-8-8l-0.3 0.3 0.4 5.2-5.3-4-0.3 0.3c0.3 3 1.1 5.7 2.1 7.5l3.1-1.2 0.1 0.2c-2.1 1.1-4.7 4.2-8.2 7.7l-0.3 3c-1.8 3.8-4.7 8.3-7.2 12.3 0 1 0.6 3.2 1.1 5.2 0.9 0.6 3.5 2 3.8 1.8 0.8-1.5 1.5-3.3 3.2-4.3l0.1 0.1c-0.1 1.8-1.7 3.2-1.8 4.9 0.7 0.7 3-0.6 4.2-1 0.6-1 0.8-3 1.3-3.6 1.3-1.1 3.1-2.5 4.3-3.6 7.9 0.5 9.9-6 9.3-11.3l0.1-0.1c2 4.9 1 10.4-4.7 13-1.7 4.5-9.4 9.9-12.2 18.6l-3.7 2.5h-32l21.7 12.2c0.4 0.2 1 0.3 1.4 0.3h5.3c3.6 2 10.1 5.3 15.1 7.3-2-2.3-3.6-5.4-4.1-9l-13.5-8.9h4.5l9.1 5.9c0.7-7.8 7.2-14.3 15-14.3 7.7 0 14 5.8 15 14l8.9-5.6h4.3l-13.2 8.9c-0.3 3.5-1.6 6.2-4.1 9 5.1-1.8 10.1-4.5 15-7.4h5.5c0.5 0 1-0.1 1.5-0.2l21.8-12v-0.2h-31zm-39.8-33.2c0.8-3.5 2.2-3 5.5-3.8-1.3 2.9-1.5 3.9-4.5 3.5l-1 0.3z"/>
  <path class="cls-0" d="m37.4 66.6c2.1 0 3.7 0.5 5.3 1.2 1.4-5.3 4.3-6.4 9.4-5.8 7.3 0.8 12-5.6 14.5-18.6l0.1 33.5c1.8-0.3 3.5-0.3 5.3 0v-3.1c1.5-0.4 2.9-1.3 4.2-2 15.7-9.2 23.5-4 33.7-2.3 10.1 1.6 16.7-0.9 26.8-10.6l-0.1-0.4c-6.1 1-12.1 0.4-19-3.7 6-2.9 13.3-9.7 18.5-18.9l-0.2-0.3c-9.4 4.5-17.4 5.5-28.2 3.4-12.7-2.5-19.3-3.9-35.7 2.8v-1.4c-2 0.2-4 0.5-6.3-0.4-0.8 4.9-6.5 13.6-12.8 13.6-3.8 0-5-1.4-9.3-1.4-3.6 0-6.9 2.4-8.5 5.9l0.1 0.4c1-0.4 2.3-0.5 3.5-0.4 1.2-1.6 3.4-2.7 5.4-2.7 3.4 0 5.4 1.7 8.8 1.7 1.7 0 3.7-0.2 5.5-1.7-5.2 5.2-9 2.2-13.2 3.5-3 0.7-6.5 3.5-8 7.5l0.2 0.2zm61-22.1c6.1-1.5 10 0.9 16.2 0.9 2 0 4.4-0.3 7.1-1l0.2 0.1c-9 6.1-15.7 1.4-23.5 0.2v-0.2zm-0.2 15.9c7.3-2.8 12.7 0.2 18.7 1.2 1.6 0.3 3.2 0.4 5.2 0.3l0.1 0.2c-9 3.8-15.1-1.1-23.8-1.5l-0.2-0.2zm-26.2-15.9c4.7 6.6 4.5 13.6 0 24v-24z"/>
  <path class="cls-0" d="m20.6 118.9v5.9h12.1l1.9-6.6h1.4l1.6 6.6h9.1c3-0.7 3.3-2.4 3.3-5.8-3-1-7.6-1.6-14.6-1.6-5.9 0-10.4 0.4-14.8 1.6v-0.1z"/>
  <path class="cls-0" d="m43.2 112.6c-0.6-0.5-1.1-1.1-1.5-1.7l-6-4.4c-0.5-0.4-1-0.3-1.2 0l-6.4 4.7 0.9 0.4 1.7-1.1 0.4 0.1c-0.6 1-1.7 2.4-3 2.3l-0.7-0.5h-0.5c-3.3 2.2-6.3 3-6.3 5.7 3.8-1.1 8.4-1.9 14.8-1.9 6.2 0 10.5 0.7 14.5 1.8 0.1-2.6-3-3.9-6.7-5.4z"/>
  <path class="cls-0" d="m114.2 112.1-1.2 0.9c-1.3-0.4-2.1-1.1-2.9-2.1l1.5 0.7c0.9 0.3 1.4 0 1.5-0.4l-6.5-4.8c-0.5-0.2-0.9 0.2-1.2 0.5l-5.4 3.7c-0.6 1-1.8 2.4-3.1 2.5l-3.2 1.7 0.7 2.3c3-0.5 6.7-0.9 11.1-0.9 6.1 0 10.7 0.4 15 1.7 0.4-3-3.5-3.9-6.3-5.8z"/>
  <path class="cls-0" d="m29.2 107.4 1.9-1.5-2.5-11.8 1.3-1-4-6.7-0.4 0.1-0.5 7.6 0.6 0.3c0.5-0.3 0.9 0.2 1 1.1l2.6 11.9z"/>
  <path class="cls-0" d="m40.2 106.6h0.2l-3-17.1 1.2-1.3-3.7-7.6h-0.4l-1 8.5 0.7 0.3c0.5-0.3 1 0.5 1 1.5l2.5 13.7 2.5 2z"/>
  <path class="cls-0" d="m112.1 107.1 2.4-12.1c0.2-0.8 0.6-1 1.6-0.8l-0.2-7.7-0.3-0.1-4.2 6.6 0.8 0.5 0.5 0.6-2.8 11.5 2.2 1.5z"/>
  <path class="cls-0" d="m103.4 104.9 2.3-14c0-1 0.7-1.9 1.7-1.5l-0.8-8.8h-0.4l-3.7 7.4 1.4 1-3.2 17.6 2.7-1.7z"/>
</svg>