<svg xmlns="http://www.w3.org/2000/svg" viewBox="0 0 100 100">
<!-- SVG created with Arrow, by QuiverAI (https://quiver.ai) -->
  <style type="text/css">.cls-0 {fill:#393939;}</style>
  <path class="cls-0" d="m50.1 1.7-5.5 14.4c1.7-0.3 3.5-0.5 5.4-0.5 1.7 0 3.5 0.2 5.2 0.4l-5.1-14.3z"/>
  <path class="cls-0" d="m15.8 44.8-13.9 5.5 13.9 5.3c-0.3-1.6-0.5-3.3-0.5-5.3 0-1.9 0.2-3.8 0.5-5.5z"/>
  <path class="cls-0" d="m84.2 44.8c0.3 1.8 0.5 3.6 0.5 5.5 0 1.7-0.2 3.5-0.4 5.3l13.9-5.3-14-5.5z"/>
  <path class="cls-0" d="m42.4 16.4 0.8-4.7c-14 1.8-28.7 13.5-31.9 31.7l4.6-1.8c2.5-9.7 11.9-21.6 25.5-25.2h1z"/>
  <path class="cls-0" d="m56.8 11.7 1.8 4.7c10.6 2.3 21.3 11.2 25.5 25.2l4.8 1.8c-2.5-14.2-14.8-29.2-32.1-31.7z"/>
  <path class="cls-0" d="m41.4 83.7c-10.2-2.4-21.1-10.7-25.5-24.9l-4.6-1.7c2.6 14.8 14.2 27.5 32 31.5l-1.9-4.9z"/>
  <path class="cls-0" d="m58.7 83.7-1.9 4.8c13.5-1.9 29.1-12.9 32-31.4l-4.8 1.7c-2.5 9.9-11.6 21.1-25.3 24.9z"/>
  <path class="cls-0" d="m50 19.7c-9 0-17.9 7.1-17.9 18 0.1 3.6 1.2 6.7 2.9 9.2 4.1 6.1 14.9 20.9 14.9 20.9s10-13.4 14.9-20.5c1.8-2.6 3-5.7 3-9.6 0-9.3-7.4-18-17.8-18zm10.3 25.3c-2.5 3.7-10.3 13.8-10.3 13.8s-7.6-9.7-10.5-14.2c-1.2-1.9-2.2-4.1-2.2-6.9 0-6.3 5.1-12.9 12.6-12.9 6.7 0 12.8 5.1 12.8 12.7 0 2.8-1.1 5.6-2.4 7.5z"/>
  <path class="cls-0" d="m44.8 84 5.2 14.3 5.4-14.7c1.5-4-1-6.5-5.5-7.8-4.4-1.4-9.8-2-10.1-4.9-0.2-2.1 5-5.1 5-5.1l-1.6-2.5c-2.6 0.7-9.5 3.3-9.4 8.3 0.6 6.2 11.8 6.2 13.7 9 1.8 2-1.3 3.5-1.3 3.5l-1.5-0.1z"/>
  <path class="cls-0" d="m60.7 63.8 2.9 3c-5.9 4.6-12.4 4.5-14 4.3 1.1 1.5 7.2 4.5 16.6-1.6l3 3.3 3-11.2-11.5 2.2z"/>
  <path class="cls-0" d="m50 28.3-2.9 6.6-6.3 2.9 6.3 2.8 2.9 6.6 2.6-6.5 6.5-2.9-6.6-2.9z"/>
</svg>
