<svg xmlns="http://www.w3.org/2000/svg" viewBox="0 0 100 100">
<!-- SVG created with Arrow, by QuiverAI (https://quiver.ai) -->
  <style type="text/css">.cls-0 {fill:#262626;stroke:#191919;stroke-width:0.25;stroke-miterlimit:10;}
.cls-1 {fill:#262626;}</style>
  <path class="cls-0" d="m84.7 27.4c-3.3-11-14.6-23.6-32.4-25l1.2 3.1c11.3 1 22.3 9.8 26 22.6 1.2-0.4 2.9-0.9 5.2-0.7z"/>
  <path class="cls-0" d="m29.5 59.7c-4.1-3.4-9.4-10.3-9.9-19.9-0.4-9.6 4-15.9 7.4-19.8l5.5 5 3.4-19-20.1 2.6 5.7 5.8c-4.6 5.1-8.5 13.2-8.6 22.5 0 11.6 5.4 22.4 14.6 29.7 0-1.5 0.8-4.8 2-6.9z"/>
  <path class="cls-0" d="m89.5 86.2v-0.2l-0.1-2.3-1.7-3.3 0.5-2-1.4 1.8 0.1 2.6-2.2 1.9-3.5-0.1 1.8-4.2-3-5 2-5-4.7 4.3 0.8 5.1-4.9 5.6-10.9 3.1c0.1 2 0.1 2.5-1.1 3.1-2.7 1.4-7.7 1.4-9 1.4l0.9-0.4 0.2-2.4c0.9 0.2 0.9 2 0.9 2 1.5-0.3 4.6-1.5 4.6-2 0.1-1.1-0.4-2.6-0.2-3.5 0.5-1.1 1.5-1.7 2.6-1.6 1.3 0 3.3-0.1 4-0.6 1.3-0.8 2.9-2.8 3.2-5-0.5-1-2-2.5-1.2-4.5 0.7-1.9 1.1-4.2 1.1-6.7 0-8.2-6.6-17-18.3-17-11.4 0-18.9 8-18.9 17 0 2.2 0.4 4.3 1.2 6.8 0.6 2-1.2 3.5-1.2 4.4 0.2 1.8 2.1 4.2 3.4 4.9 1.1 0.5 2.4 0.7 4.2 0.7 1.2 0 2.2 0.9 2.2 2l-0.2 3.1c0.4 0.8 4 1.9 4.3 1.9l0.5-1.6c0-0.3 0.7-0.8 0.8 0.2v1.9l1 0.3c-1.8 0.1-7-0.1-9.4-1.5-1-0.5-0.8-1.8-0.8-2.9l-10.7-2.9-6-6.9 0.6-6.7-5.4 7.1 2.3 5.4-3 0.2-3-2.3-0.2-4-1.8 4.3 0.4 2.9c-2.1 0.9-4.3 1.9-5.9 3.3 2-0.3 4-0.4 5.9-0.4 6.6 0.1 11.1 1.2 17.3 3.4 6.3 2 12.1 5.5 22 5.8 9.7 0.1 15.3-2.6 21.8-5 4.9-1.7 11.4-4 18.1-4 1.6 0 3.7 0.2 5.6 0.3-1.5-1-3.5-2-5.6-2.8zm-54.3-11.3c0-3.5 2.1-4.9 3.9-5.2 2.6-0.2 7.8 1.9 8.1 4 0.3 2.3-1.7 5.7-6.9 6-3.4 0-5.1-2.1-5.1-4.8zm12.7 11.5c-2-0.7-1.8-3.4 0.4-6.9 1-1.6 1.7-1.8 2.5-0.8 1.1 1.3 4.1 6.5 0.7 7.8-1.1-0.4-1.8-1.5-1.8-1.5s-1.2 1.4-1.8 1.4zm5.2-13.3c1.4-1.2 4.4-3.1 7-3.1 1.9 0 4.3 0.9 4.3 4.7 0 3.3-1.9 5-4.9 5.2-4.7 0-7.1-2.3-7.5-5-0.1-0.8 0.3-1.4 1.1-1.8z"/>
  <path class="cls-0" d="m74.6 54.9c-1.1 1.6-2.7 3.3-4.6 4.8 1.1 2 1.9 4.3 1.9 6.9 3-2.2 6.2-5.6 8.5-8.9-1.6-0.3-3.7-1.3-5.8-2.8z"/>
  <path class="cls-1" d="m46.4 44.6c-1.2-2.2-2-6.4-0.3-10.2 2.3-4.7 7.4-6.3 9.4-12 2-4.9 0-9.7-0.8-11.8-0.2 10-9.3 13-12.2 18.4-3 5.6-1 10.9 3.9 15.6z"/>
  <path class="cls-1" d="m50.2 47.4c0.3-9.5 8.1-10.9 9.7-17.2 0.8-3 0.4-5.8-0.9-8.8-0.9 9.2-9.9 10-11.1 17.6-0.3 3.4 1.2 6.6 2.3 8.4z"/>
  <path class="cls-1" d="m84.2 30.3c-6.6-0.1-12.1 5.3-12.1 12.3 0 6.3 4.6 12.4 12.1 12.4 6.9 0 11.7-5.1 11.7-12 0-6.1-4.8-12.6-11.7-12.7zm6.9 13.2c0 0.6-0.6 1.4-1.2 1.4h-11.8c-0.6 0-1.3-0.8-1.3-1.4v-1.1c0-0.7 0.7-1.4 1.3-1.4h11.9c0.5 0 1.1 0.7 1.1 1.4v1.1z"/>
</svg>